<?xml version="1.0" encoding="UTF-8" standalone="no"?>
<!-- Created with Inkscape (http://www.inkscape.org/) -->

<svg
   xmlns:dc="http://purl.org/dc/elements/1.1/"
   xmlns:cc="http://creativecommons.org/ns#"
   xmlns:rdf="http://www.w3.org/1999/02/22-rdf-syntax-ns#"
   xmlns:svg="http://www.w3.org/2000/svg"
   xmlns="http://www.w3.org/2000/svg"
   xmlns:sodipodi="http://sodipodi.sourceforge.net/DTD/sodipodi-0.dtd"
   xmlns:inkscape="http://www.inkscape.org/namespaces/inkscape"
   width="260"
   height="260"
   id="svg2"
   version="1.1"
   inkscape:version="0.48.5 r10040"
   sodipodi:docname="favicon2.png">
  <defs
     id="defs4" />
  <sodipodi:namedview
     id="base"
     pagecolor="#ffffff"
     bordercolor="#666666"
     borderopacity="1.0"
     inkscape:pageopacity="0"
     inkscape:pageshadow="2"
     inkscape:zoom="1.88"
     inkscape:cx="168.3316"
     inkscape:cy="132.47506"
     inkscape:document-units="px"
     inkscape:current-layer="layer1"
     showgrid="true"
     inkscape:window-width="1172"
     inkscape:window-height="706"
     inkscape:window-x="0"
     inkscape:window-y="0"
     inkscape:window-maximized="0">
    <inkscape:grid
       type="xygrid"
       id="grid3755"
       empspacing="5"
       visible="true"
       enabled="true"
       snapvisiblegridlinesonly="true" />
  </sodipodi:namedview>
  <metadata
     id="metadata7">
    <rdf:RDF>
      <cc:Work
         rdf:about="">
        <dc:format>image/svg+xml</dc:format>
        <dc:type
           rdf:resource="http://purl.org/dc/dcmitype/StillImage" />
        <dc:title></dc:title>
      </cc:Work>
    </rdf:RDF>
  </metadata>
  <g
     inkscape:label="Layer 1"
     inkscape:groupmode="layer"
     id="layer1"
     transform="translate(0,-792.36218)">
    <rect
       style="fill:#e6e6e6;fill-opacity:1;stroke:none"
       id="rect2990"
       width="170"
       height="20"
       x="45"
       y="857.36218"
       ry="0" />
    <rect
       style="fill:#e6e6e6;fill-opacity:1;stroke:none"
       id="rect2990-8"
       width="170"
       height="20"
       x="45"
       y="922.36218"
       ry="0" />
    <rect
       style="fill:#e6e6e6;fill-opacity:1;stroke:none"
       id="rect2990-7"
       width="170"
       height="20"
       x="-969.86823"
       y="224.85312"
       ry="0"
       transform="matrix(0.16869062,-0.98566905,0.98566905,0.16869062,0,0)" />
    <rect
       style="fill:#e6e6e6;fill-opacity:1;stroke:none"
       id="rect2990-7-9"
       width="170"
       height="20"
       x="-957.89783"
       y="285.68246"
       ry="0"
       transform="matrix(0.16869062,-0.98566905,0.98566905,0.16869062,0,0)" />
    <rect
       style="fill:#ffa600;fill-opacity:1;stroke:none"
       id="rect2985"
       width="260"
       height="260"
       x="0"
       y="792.36218"
       ry="39.999996"
       inkscape:export-xdpi="11.08"
       inkscape:export-ydpi="11.08" />
    <g
       id="g3823"
       transform="matrix(0.33524498,0,0,-0.33524498,-14.567759,997.82098)"
       style="fill:#ffffff">
      <path
         id="path3825"
         d="m 207,407 -20,-169 110,2 21,168 z m -34,217 61,3 -21,-172 110,1 20,163 62,2 -20,-164 91,1 -6,-48 -91,-1 -21,-168 99,2 -5,-47 -99,-2 -22,-180 -61,-4 22,183 -111,-1 -21,-178 -59,-3 21,180 -97,-2 4,46 99,2 20,170 -109,-1 3,47 111,1 z"
         inkscape:connector-curvature="0"
         style="fill:#ffffff" />
    </g>
  </g>
</svg>
